# xmcd CD database file
#
# Track frame offsets:
#	150
#	13850
#	28062
#	39562
#	53425
#	67375
#	81637
#	95425
#	107262
#	122225
#	135125
#	148937
#	159075
#	173362
#	187175
#	200300
#
# Disc length: 2800 seconds
#
# Revision: 0
# Processed by: cddbd v1.5.1PL0 Copyright (c) Steve Scherf et al.
# Submitted via: CDex 1.51
#
DISCID=d60aee10
DTITLE=Billie Holiday - The Billie Holiday Story
DYEAR=1993
DGENRE=Jazz
TTITLE0=The Mood That I'm In
TTITLE1=Carelessly
TTITLE2=How Could You
TTITLE3=They Can't Take That Away From Me
TTITLE4=Moanin' Low
TTITLE5=Mean To Me
TTITLE6=Easy Living
TTITLE7=Me, Myself and I
TTITLE8=Yours and Mine
TTITLE9=A Sailboat In The Moonlight
TTITLE10=Gettin' Some Fun Out Of Life
TTITLE11=Trav'lin All Alone
TTITLE12=Nice Work If You Can Get It
TTITLE13=My Man
TTITLE14=You Go To My Head
TTITLE15=I'm Gonna Lock My Heart
EXTD=YEAR: 1993
EXTT0=
EXTT1=
EXTT2=
EXTT3=
EXTT4=
EXTT5=
EXTT6=
EXTT7=
EXTT8=
EXTT9=
EXTT10=
EXTT11=
EXTT12=
EXTT13=
EXTT14=
EXTT15=
PLAYORDER=
